HIERARCHY
ROOT Hips
{
	OFFSET 0.000000 103.266502 0.000000
	CHANNELS 6 Xposition Yposition Zposition Xrotation Yrotation Zrotation 
	JOINT Spine
	{
		OFFSET -0.002400 12.777504 0.315300
		CHANNELS 3 Xrotation Yrotation Zrotation
		JOINT Spine1
		{
			OFFSET -0.002067 5.816869 0.032633
			CHANNELS 3 Xrotation Yrotation Zrotation
			JOINT Spine1_split
			{
				OFFSET -0.002067 5.816869 0.032633
				CHANNELS 3 Xrotation Yrotation Zrotation
				JOINT Spine2
				{
					OFFSET -0.002067 5.816869 0.032633
					CHANNELS 3 Xrotation Yrotation Zrotation
					JOINT Neck
					{
						OFFSET -0.003700 21.199493 -0.826900
						CHANNELS 3 Xrotation Yrotation Zrotation
						JOINT Head
						{
							OFFSET 0.000000 20.442200 4.834800
							CHANNELS 3 Xrotation Yrotation Zrotation
							JOINT HeadTop_End
							{
								OFFSET 0.000000 34.668396 4.968400
								CHANNELS 3 Xrotation Yrotation Zrotation
								End Site
								{
									OFFSET 0.000000 0.000000 0.000000
								}
							}
						}
					}
					JOINT LeftShoulder
					{
						OFFSET 3.288150 8.794197 -1.372250
						CHANNELS 3 Xrotation Yrotation Zrotation
						JOINT LeftShoulder_split
						{
							OFFSET 3.288150 8.794197 -1.372250
							CHANNELS 3 Xrotation Yrotation Zrotation
							JOINT LeftArm
							{
								OFFSET 11.953299 -2.279007 -0.146200
								CHANNELS 3 Xrotation Yrotation Zrotation
								JOINT LeftForeArm
								{
									OFFSET 18.448900 0.000000 0.000000
									CHANNELS 3 Xrotation Yrotation Zrotation
									JOINT LeftHand
									{
										OFFSET 29.527798 0.000000 0.000000
										CHANNELS 3 Xrotation Yrotation Zrotation
										JOINT LeftHandThumb1
										{
											OFFSET 10.739754 -2.369614 9.225399
											CHANNELS 3 Xrotation Yrotation Zrotation
											JOINT LeftHandThumb2
											{
												OFFSET 4.926170 -2.844131 2.844125
												CHANNELS 3 Xrotation Yrotation Zrotation
												JOINT LeftHandThumb3
												{
													OFFSET 4.614891 -2.664413 2.664409
													CHANNELS 3 Xrotation Yrotation Zrotation
													JOINT LeftHandThumb4
													{
														OFFSET 4.432465 -2.559082 2.559083
														CHANNELS 3 Xrotation Yrotation Zrotation
														End Site
														{
															OFFSET 0.000000 0.000000 0.000000
														}
													}
												}
											}
										}
										JOINT LeftHandIndex1
										{
											OFFSET 26.467674 0.187653 6.405298
											CHANNELS 3 Xrotation Yrotation Zrotation
											JOINT LeftHandIndex2
											{
												OFFSET 8.792900 0.000000 0.000000
												CHANNELS 3 Xrotation Yrotation Zrotation
												JOINT LeftHandIndex3
												{
													OFFSET 10.075203 0.000000 0.000000
													CHANNELS 3 Xrotation Yrotation Zrotation
													End Site
													{
														OFFSET 0.000000 0.000000 0.000000
													}
												}
											}
										}
										JOINT LeftHandMiddle1
										{
											OFFSET 25.764404 0.000000 0.000000
											CHANNELS 3 Xrotation Yrotation Zrotation
											JOINT LeftHandMiddle2
											{
												OFFSET 9.393974 0.000000 0.000000
												CHANNELS 3 Xrotation Yrotation Zrotation
												JOINT LeftHandMiddle3
												{
													OFFSET 10.771950 0.000000 0.000000
													CHANNELS 3 Xrotation Yrotation Zrotation
													End Site
													{
														OFFSET 0.000000 0.000000 0.000000
													}
												}
											}
										}
										JOINT LeftHandRing1
										{
											OFFSET 24.660927 0.144547 -6.225808
											CHANNELS 3 Xrotation Yrotation Zrotation
											JOINT LeftHandRing2
											{
												OFFSET 9.393799 0.000000 0.000000
												CHANNELS 3 Xrotation Yrotation Zrotation
												JOINT LeftHandRing3
												{
													OFFSET 9.928497 0.000000 0.000000
													CHANNELS 3 Xrotation Yrotation Zrotation
													End Site
													{
														OFFSET 0.000000 0.000000 0.000000
													}
												}
											}
										}
										JOINT LeftHandPinky1
										{
											OFFSET 23.655350 0.125290 -12.815412
											CHANNELS 3 Xrotation Yrotation Zrotation
											JOINT LeftHandPinky2
											{
												OFFSET 8.425102 0.000000 0.000000
												CHANNELS 3 Xrotation Yrotation Zrotation
												JOINT LeftHandPinky3
												{
													OFFSET 8.147003 0.000000 0.000000
													CHANNELS 3 Xrotation Yrotation Zrotation
													End Site
													{
														OFFSET 0.000000 0.000000 0.000000
													}
												}
											}
										}
									}
								}
							}
						}
					}
					JOINT RightShoulder
					{
						OFFSET -3.249400 8.794197 -1.372250
						CHANNELS 3 Xrotation Yrotation Zrotation
						JOINT RightShoulder_split
						{
							OFFSET -3.249400 8.794197 -1.372250
							CHANNELS 3 Xrotation Yrotation Zrotation
							JOINT RightArm
							{
								OFFSET -11.953299 -2.279007 -0.146200
								CHANNELS 3 Xrotation Yrotation Zrotation
								JOINT RightForeArm
								{
									OFFSET -18.448900 0.000000 0.000000
									CHANNELS 3 Xrotation Yrotation Zrotation
									JOINT RightHand
									{
										OFFSET -29.527802 0.000000 0.000000
										CHANNELS 3 Xrotation Yrotation Zrotation
										JOINT RightHandThumb1
										{
											OFFSET -10.739754 -2.369614 9.225399
											CHANNELS 3 Xrotation Yrotation Zrotation
											JOINT RightHandThumb2
											{
												OFFSET -4.926170 -2.844131 2.844125
												CHANNELS 3 Xrotation Yrotation Zrotation
												JOINT RightHandThumb3
												{
													OFFSET -4.614891 -2.664413 2.664409
													CHANNELS 3 Xrotation Yrotation Zrotation
													JOINT RightHandThumb4
													{
														OFFSET -4.432465 -2.559082 2.559083
														CHANNELS 3 Xrotation Yrotation Zrotation
														End Site
														{
															OFFSET 0.000000 0.000000 0.000000
														}
													}
												}
											}
										}
										JOINT RightHandIndex1
										{
											OFFSET -26.467674 0.187653 6.405298
											CHANNELS 3 Xrotation Yrotation Zrotation
											JOINT RightHandIndex2
											{
												OFFSET -8.792900 0.000000 0.000000
												CHANNELS 3 Xrotation Yrotation Zrotation
												JOINT RightHandIndex3
												{
													OFFSET -10.075203 0.000000 0.000000
													CHANNELS 3 Xrotation Yrotation Zrotation
													End Site
													{
														OFFSET 0.000000 0.000000 0.000000
													}
												}
											}
										}
										JOINT RightHandMiddle1
										{
											OFFSET -25.764404 0.000000 0.000000
											CHANNELS 3 Xrotation Yrotation Zrotation
											JOINT RightHandMiddle2
											{
												OFFSET -9.393974 0.000000 0.000000
												CHANNELS 3 Xrotation Yrotation Zrotation
												JOINT RightHandMiddle3
												{
													OFFSET -10.771950 0.000000 0.000000
													CHANNELS 3 Xrotation Yrotation Zrotation
													End Site
													{
														OFFSET 0.000000 0.000000 0.000000
													}
												}
											}
										}
										JOINT RightHandRing1
										{
											OFFSET -24.660927 0.144547 -6.225808
											CHANNELS 3 Xrotation Yrotation Zrotation
											JOINT RightHandRing2
											{
												OFFSET -9.393799 0.000000 0.000000
												CHANNELS 3 Xrotation Yrotation Zrotation
												JOINT RightHandRing3
												{
													OFFSET -9.928497 0.000000 0.000000
													CHANNELS 3 Xrotation Yrotation Zrotation
													End Site
													{
														OFFSET 0.000000 0.000000 0.000000
													}
												}
											}
										}
										JOINT RightHandPinky1
										{
											OFFSET -23.655350 0.125290 -12.815412
											CHANNELS 3 Xrotation Yrotation Zrotation
											JOINT RightHandPinky2
											{
												OFFSET -8.425102 0.000000 0.000000
												CHANNELS 3 Xrotation Yrotation Zrotation
												JOINT RightHandPinky3
												{
													OFFSET -8.147003 0.000000 0.000000
													CHANNELS 3 Xrotation Yrotation Zrotation
													End Site
													{
														OFFSET 0.000000 0.000000 0.000000
													}
												}
											}
										}
									}
								}
							}
						}
					}
				}
			}
		}
	}
	JOINT LeftUpLeg
	{
		OFFSET 11.394100 -6.187798 -0.413800
		CHANNELS 3 Xrotation Yrotation Zrotation
		JOINT LeftLeg
		{
			OFFSET 0.430247 -32.302673 3.732800
			CHANNELS 3 Xrotation Yrotation Zrotation
			JOINT LeftFoot
			{
				OFFSET -0.430247 -48.264931 -6.423300
				CHANNELS 3 Xrotation Yrotation Zrotation
				JOINT LeftToeBase
				{
					OFFSET 4.230900 -16.068199 23.438400
					CHANNELS 3 Xrotation Yrotation Zrotation
					JOINT LeftToe_End
					{
						OFFSET 4.510700 0.695400 19.974600
						CHANNELS 3 Xrotation Yrotation Zrotation
						End Site
						{
							OFFSET 0.000000 0.000000 0.000000
						}
					}
				}
			}
		}
	}
	JOINT RightUpLeg
	{
		OFFSET -11.333700 -6.187798 -0.413800
		CHANNELS 3 Xrotation Yrotation Zrotation
		JOINT RightLeg
		{
			OFFSET -0.430392 -32.302628 3.733000
			CHANNELS 3 Xrotation Yrotation Zrotation
			JOINT RightFoot
			{
				OFFSET 0.430392 -48.264973 -6.423500
				CHANNELS 3 Xrotation Yrotation Zrotation
				JOINT RightToeBase
				{
					OFFSET -4.230900 -16.068199 23.438400
					CHANNELS 3 Xrotation Yrotation Zrotation
					JOINT RightToe_End
					{
						OFFSET -4.510700 0.695400 19.974600
						CHANNELS 3 Xrotation Yrotation Zrotation
						End Site
						{
							OFFSET 0.000000 0.000000 0.000000
						}
					}
				}
			}
		}
	}
}
MOTION
Frames: 5
Frame Time: 0.016667
-4.916003 93.878853 16.843048 -3.720355 -9.823194 -1.154983 5.734860 1.084862 -0.483407 4.739113 -0.064816 0.012273 0.000000 0.000000 0.000000 10.292013 26.036297 -3.377461 3.202052 7.206171 0.255002 3.577873 59.991628 -6.564263 0.000001 0.000000 -0.000000 8.936044 -24.743272 -2.968062 0.000000 0.000000 0.000000 -31.852847 14.094144 -57.493636 -91.088632 12.819920 -86.878633 -27.577451 -4.331849 -2.991467 0.699125 9.503387 -2.418116 5.975196 12.647539 1.348333 -23.873553 -17.664220 1.604931 0.000004 -0.000000 0.000000 9.479711 -1.289773 -20.785563 0.709480 2.796410 -28.467071 -0.000001 0.000002 -0.000002 10.058159 -1.800600 -20.644711 1.774262 4.200481 -45.782072 -0.000001 -0.000000 -0.000000 1.254222 -0.073706 -17.945777 3.754099 5.463639 -68.965294 0.000001 -0.000001 0.000000 -7.938249 1.609091 -6.495675 2.210569 4.583641 -51.475150 -0.000001 0.000001 0.000000 10.514880 19.496058 -2.041468 0.000000 0.000000 0.000000 -4.648027 40.347778 49.038969 77.661853 115.432629 -92.279380 -10.082957 20.006795 14.104948 13.942492 -4.273686 -5.300355 7.113166 -20.767455 -2.619509 -3.463297 -24.899769 -18.660459 -0.000000 -0.000003 -0.000003 0.357763 -5.832698 5.175846 0.094364 -0.933668 11.539903 -0.000000 -0.000001 0.000000 3.764091 -12.080452 1.143781 5.714286 -4.535843 103.133582 -0.000000 0.000000 0.000000 -12.155601 -12.623917 9.228345 6.566865 -4.248470 114.232325 0.000000 0.000001 -0.000002 -17.635765 -10.496856 3.325424 4.993643 -4.645046 94.147942 0.000000 -0.000002 0.000001 -32.968210 -3.593290 1.983029 41.941972 -3.168576 -2.423683 -5.502989 -6.183381 -0.510581 -0.128936 0.124053 0.161730 0.000000 0.000001 0.000000 -25.652102 3.530034 0.206922 45.274028 9.683874 -3.728678 -16.370795 3.854274 0.910417 -1.112973 1.816860 1.373158 -0.000000 0.000000 0.000000 
-5.730551 94.162117 16.806921 -3.620843 -8.367313 -1.034461 5.733793 1.111694 -0.522449 4.739295 -0.071922 0.012347 0.000000 0.000000 0.000000 10.288210 26.012977 -3.374271 3.194706 7.149673 0.254700 3.360325 59.445991 -6.494796 -0.000000 -0.000000 0.000002 8.936001 -24.743264 -2.968078 0.000000 0.000000 0.000000 -31.749656 14.370494 -57.487858 -91.150200 12.779876 -87.127942 -27.586016 -4.098550 -2.879878 0.699123 9.503387 -2.418118 5.975195 12.647541 1.348331 -23.873562 -17.664220 1.604931 -0.000000 -0.000000 -0.000001 9.479712 -1.289772 -20.785565 0.709479 2.796412 -28.467076 0.000000 0.000003 0.000003 10.058159 -1.800599 -20.644713 1.774264 4.200485 -45.782075 0.000001 0.000001 0.000000 1.254223 -0.073706 -17.945779 3.754102 5.463639 -68.965294 0.000000 -0.000001 -0.000000 -7.938248 1.609091 -6.495674 2.210568 4.583641 -51.475150 -0.000000 0.000001 -0.000000 10.514944 19.487730 -2.039797 0.000000 0.000000 0.000000 -4.646386 40.614689 49.167489 77.464857 115.453720 -92.137346 -9.777768 20.005587 13.914320 13.942491 -4.273683 -5.300356 7.113163 -20.767453 -2.619510 -3.463297 -24.899767 -18.660456 0.000002 0.000001 0.000003 0.357760 -5.832695 5.175847 0.094365 -0.933669 11.539903 0.000000 0.000001 0.000000 3.764088 -12.080451 1.143781 5.714288 -4.535845 103.133575 -0.000000 0.000000 -0.000000 -12.155602 -12.623915 9.228345 6.566867 -4.248470 114.232325 -0.000001 0.000000 -0.000000 -17.635770 -10.496855 3.325424 4.993646 -4.645045 94.147942 0.000000 -0.000001 0.000000 -32.532338 -4.565651 1.825642 40.843022 -3.817860 -2.319322 -5.061326 -6.050757 -1.032289 -0.131286 0.126159 0.164709 -0.000000 0.000001 -0.000000 -25.005958 2.692210 -0.069675 44.410197 9.122773 -3.133844 -16.137056 3.979458 0.512960 1.215294 2.058471 2.339638 -0.000000 -0.000001 0.000000 
-6.525080 94.427475 16.722818 -3.525868 -6.812451 -0.902365 5.727235 1.134460 -0.561060 4.738550 -0.077031 0.013274 0.000000 0.000000 0.000000 10.277607 25.957786 -3.363604 3.181541 7.089881 0.250239 3.168556 58.869141 -6.463692 0.000000 -0.000000 0.000000 8.936030 -24.743202 -2.968080 0.000000 0.000000 0.000000 -31.626474 14.382061 -57.607858 -91.448713 12.658910 -87.264915 -27.549389 -3.888648 -2.758375 0.699129 9.503387 -2.418115 5.975193 12.647541 1.348332 -23.873558 -17.664218 1.604932 0.000004 -0.000001 -0.000000 9.479713 -1.289775 -20.785563 0.709479 2.796413 -28.467071 0.000001 0.000001 0.000000 10.058160 -1.800600 -20.644711 1.774264 4.200484 -45.782078 -0.000000 -0.000001 -0.000001 1.254225 -0.073706 -17.945777 3.754101 5.463636 -68.965287 -0.000000 -0.000000 -0.000000 -7.938245 1.609091 -6.495675 2.210571 4.583640 -51.475154 -0.000000 0.000001 0.000001 10.515028 19.480676 -2.038390 0.000000 0.000000 0.000000 -4.644152 40.827435 49.316534 77.224304 115.480167 -92.086209 -9.525324 19.966340 13.905994 13.942493 -4.273688 -5.300357 7.113163 -20.767451 -2.619509 -3.463296 -24.899767 -18.660463 0.000001 -0.000001 -0.000002 0.357761 -5.832701 5.175847 0.094364 -0.933669 11.539903 0.000001 -0.000001 0.000000 3.764090 -12.080455 1.143782 5.714287 -4.535844 103.133575 -0.000000 -0.000000 0.000000 -12.155601 -12.623917 9.228345 6.566869 -4.248470 114.232325 -0.000001 0.000001 0.000000 -17.635767 -10.496857 3.325423 4.993642 -4.645046 94.147942 -0.000000 -0.000000 -0.000000 -32.160034 -5.513990 1.634450 39.694088 -4.756911 -2.230061 -4.527885 -5.722963 -1.492256 -0.132856 0.128170 0.166667 -0.000000 0.000002 0.000000 -24.403605 1.810154 -0.308876 43.676925 8.438038 -2.618661 -15.994334 4.101047 -0.001238 1.386119 2.196477 1.768491 0.000000 0.000001 -0.000000 
-7.264106 94.647774 16.562490 -3.435133 -5.120033 -0.769010 5.712872 1.155487 -0.590942 4.738976 -0.070926 0.012768 0.000000 0.000000 0.000000 10.249797 25.856279 -3.366812 3.164821 7.027055 0.241469 2.845044 57.878743 -6.391096 0.000000 -0.000000 0.000000 8.936046 -24.743246 -2.968071 0.000000 0.000000 0.000000 -31.289404 14.458619 -57.880280 -91.904382 12.475035 -87.595462 -27.473739 -3.547119 -2.576792 0.699129 9.503389 -2.418117 5.975195 12.647538 1.348331 -23.873555 -17.664220 1.604931 -0.000001 0.000001 0.000000 9.479713 -1.289771 -20.785565 0.709478 2.796413 -28.467078 -0.000002 0.000003 0.000001 10.058164 -1.800600 -20.644713 1.774262 4.200484 -45.782075 0.000001 -0.000000 0.000003 1.254225 -0.073707 -17.945779 3.754100 5.463641 -68.965294 0.000001 0.000000 -0.000000 -7.938246 1.609092 -6.495673 2.210570 4.583640 -51.475150 0.000001 0.000001 0.000001 10.514843 19.501177 -2.042497 0.000000 0.000000 0.000000 -4.444137 41.110762 49.507516 76.555677 115.556064 -91.692571 -9.035354 19.920032 13.815833 13.942492 -4.273687 -5.300356 7.113164 -20.767453 -2.619506 -3.463295 -24.899769 -18.660454 0.000000 -0.000002 -0.000000 0.357761 -5.832699 5.175845 0.094364 -0.933669 11.539903 0.000001 0.000001 0.000001 3.764090 -12.080456 1.143781 5.714287 -4.535842 103.133575 -0.000000 -0.000000 0.000000 -12.155600 -12.623917 9.228344 6.566867 -4.248472 114.232325 -0.000000 -0.000001 -0.000003 -17.635769 -10.496855 3.325423 4.993647 -4.645045 94.147942 -0.000001 0.000001 -0.000000 -31.934724 -6.275093 1.662789 38.799716 -3.381459 -2.147578 -3.995259 -6.379460 -2.295073 -0.101335 0.130120 0.257854 -0.000000 0.000000 -0.000000 -23.925198 0.892907 -0.519068 43.130049 7.579691 -2.207796 -15.930943 4.209675 -0.533533 1.465098 2.196300 1.869412 0.000000 0.000000 -0.000000 
-7.942693 94.833794 16.347515 -3.350070 -3.362599 -0.640873 5.692098 1.165831 -0.609466 4.741277 -0.063566 0.011808 0.000000 0.000000 0.000000 10.218572 25.720438 -3.366810 3.145543 6.961898 0.230084 2.520919 56.815911 -6.333990 -0.000000 -0.000000 -0.000003 8.936020 -24.743296 -2.968073 0.000000 0.000000 0.000000 -30.898304 14.479559 -58.235006 -92.469252 12.257919 -87.943760 -27.369302 -3.186895 -2.376241 0.699126 9.503388 -2.418116 5.975195 12.647537 1.348333 -23.873558 -17.664220 1.604931 -0.000001 -0.000001 -0.000001 9.479712 -1.289771 -20.785565 0.709480 2.796411 -28.467076 -0.000002 0.000002 0.000002 10.058158 -1.800596 -20.644715 1.774261 4.200482 -45.782075 0.000000 0.000000 -0.000000 1.254225 -0.073706 -17.945779 3.754100 5.463638 -68.965287 -0.000001 -0.000001 -0.000000 -7.938248 1.609093 -6.495672 2.210571 4.583641 -51.475147 -0.000001 -0.000000 -0.000001 10.515776 19.488637 -2.040140 0.000000 0.000000 0.000000 -4.203960 41.444714 49.690309 75.831301 115.642015 -91.307512 -8.536996 19.865986 13.775110 13.942492 -4.273687 -5.300355 7.113163 -20.767451 -2.619508 -3.463296 -24.899767 -18.660459 0.000001 0.000002 -0.000000 0.357762 -5.832700 5.175846 0.094364 -0.933669 11.539904 0.000001 0.000000 0.000001 3.764089 -12.080452 1.143781 5.714287 -4.535842 103.133575 0.000000 0.000000 -0.000000 -12.155602 -12.623918 9.228342 6.566867 -4.248470 114.232325 0.000000 0.000001 0.000001 -17.635770 -10.496856 3.325423 4.993643 -4.645044 94.147942 -0.000000 -0.000000 0.000000 -31.926411 -6.847580 1.928286 38.428458 -1.113675 -2.065985 -3.604062 -7.145834 -3.560342 -0.037958 0.169697 0.296776 0.000000 -0.000002 0.000000 -23.511314 -0.054087 -0.712895 42.638159 6.726617 -1.867492 -15.870368 4.288585 -0.959762 1.507892 2.196333 1.924107 -0.000000 -0.000000 0.000000 
